<?xml version="1.0" encoding="utf-8"?>
<!-- Generator: Adobe Illustrator 28.1.0, SVG Export Plug-In . SVG Version: 6.00 Build 0)  -->
<svg version="1.1" id="Layer_1" xmlns="http://www.w3.org/2000/svg" xmlns:xlink="http://www.w3.org/1999/xlink" x="0px" y="0px"
	 viewBox="0 0 564 370" style="enable-background:new 0 0 564 370;" xml:space="preserve">
<style type="text/css">
	.st0{clip-path:url(#SVGID_00000013896023022198981390000005166712688980039603_);}
	.st1{fill:url(#SVGID_00000093869684921005015110000000431759132560461242_);}
	.st2{fill:none;stroke:url(#SVGID_00000065755133815474549530000006541966987095644800_);stroke-width:0.3355;}
	.st3{fill:#1C1D26;fill-opacity:0.8;}
	.st4{fill:url(#SVGID_00000159442476009746960280000011605258848820368570_);fill-opacity:0.1;}
	.st5{fill:none;}
	.st6{clip-path:url(#SVGID_00000035520400508240144690000000066185486775668131_);}
	.st7{display:none;}
	.st8{display:inline;}
	.st9{display:inline;clip-path:url(#SVGID_00000000906071277573865000000012421768583964845704_);}
	.st10{fill:#282A37;}
	.st11{display:inline;clip-path:url(#SVGID_00000071525236102749752970000007694442587012262334_);}
	.st12{clip-path:url(#SVGID_00000039136113041165707620000008489959628863181956_);}
	.st13{clip-path:url(#SVGID_00000098179968221532812780000006365705306884323747_);}
	.st14{fill:#828699;}
	.st15{fill:#9A9EB3;}
	.st16{fill:#DCDDDE;}
	.st17{fill:#FFFFFF;fill-opacity:0.12;}
	.st18{fill:#FFFFFF;}
	.st19{fill:none;stroke:url(#SVGID_00000142856313699500680370000003277779168598419082_);}
	.st20{fill:none;stroke:url(#SVGID_00000003106457328243386840000001112924769810917778_);stroke-opacity:0.3;}
	.st21{fill:#5753EC;}
	.st22{fill:url(#SVGID_00000121276301775495491060000012963348995253075896_);}
	.st23{fill:none;stroke:url(#SVGID_00000103955387246418626970000013333395898879899794_);}
</style>
<g>
	<defs>
		<path id="SVGID_1_" d="M24.1,0.5H1086c13.1,0,23.6,10.6,23.6,23.6v679.7c0,13.1-10.6,23.6-23.6,23.6H24.1
			c-13.1,0-23.6-10.6-23.6-23.6V24.1C0.5,11.1,11.1,0.5,24.1,0.5z"/>
	</defs>
	<clipPath id="SVGID_00000036230959085440701610000012730758634699795332_">
		<use xlink:href="#SVGID_1_"  style="overflow:visible;"/>
	</clipPath>
	<g style="clip-path:url(#SVGID_00000036230959085440701610000012730758634699795332_);">
		
			<linearGradient id="SVGID_00000040573701777081734270000015161437358297396366_" gradientUnits="userSpaceOnUse" x1="555.0833" y1="371.5" x2="555.0833" y2="-355.4671" gradientTransform="matrix(1 0 0 -1 0 372)">
			<stop  offset="0" style="stop-color:#171821"/>
			<stop  offset="1" style="stop-color:#171821;stop-opacity:0"/>
		</linearGradient>
		<path style="fill:url(#SVGID_00000040573701777081734270000015161437358297396366_);" d="M24.1,0.5H1086
			c13.1,0,23.6,10.6,23.6,23.6v679.7c0,13.1-10.6,23.6-23.6,23.6H24.1c-13.1,0-23.6-10.6-23.6-23.6V24.1C0.5,11.1,11.1,0.5,24.1,0.5
			z"/>
		
			<radialGradient id="SVGID_00000012442754743080354380000017273296238171695526_" cx="-678.7554" cy="723.2971" r="1.8352" gradientTransform="matrix(2.152317e-14 -351.5 -351.5 -2.152317e-14 254794 -238047.8594)" gradientUnits="userSpaceOnUse">
			<stop  offset="0" style="stop-color:#282A37"/>
			<stop  offset="1" style="stop-color:#282A37;stop-opacity:0"/>
		</radialGradient>
		<path style="fill:none;stroke:url(#SVGID_00000012442754743080354380000017273296238171695526_);stroke-width:0.3355;" d="
			M-164-178.5v1427.6 M-121.7-178.5v1427.6 M-79.4-178.5v1427.6 M-37.1-178.5v1427.6 M5.2-178.5v1427.6 M47.5-178.5v1427.6
			 M89.8-178.5v1427.6 M132.1-178.5v1427.6 M174.4-178.5v1427.6 M216.7-178.5v1427.6 M259-178.5v1427.6 M301.3-178.5v1427.6
			 M343.6-178.5v1427.6 M385.9-178.5v1427.6 M428.2-178.5v1427.6 M470.5-178.5v1427.6 M512.8-178.5v1427.6 M555.1-178.5v1427.6
			 M597.4-178.5v1427.6 M639.7-178.5v1427.6 M682-178.5v1427.6 M724.3-178.5v1427.6 M766.6-178.5v1427.6 M808.9-178.5v1427.6
			 M851.2-178.5v1427.6 M893.5-178.5v1427.6 M935.8-178.5v1427.6 M978.1-178.5v1427.6 M1020.4-178.5v1427.6 M1062.7-178.5v1427.6
			 M1105-178.5v1427.6 M1147.3-178.5v1427.6 M1189.6-178.5v1427.6 M1231.9-178.5v1427.6 M1274.2-178.5v1427.6 M-159.4,1253.8h1427.6
			 M-159.4,1211.5h1427.6 M-159.4,1169.2h1427.6 M-159.4,1126.9h1427.6 M-159.4,1084.6h1427.6 M-159.4,1042.3h1427.6 M-159.4,1000
			h1427.6 M-159.4,957.7h1427.6 M-159.4,915.4h1427.6 M-159.4,873.1h1427.6 M-159.4,830.8h1427.6 M-159.4,788.5h1427.6
			 M-159.4,746.2h1427.6 M-159.4,703.9h1427.6 M-159.4,661.6h1427.6 M-159.4,619.3h1427.6 M-159.4,577h1427.6 M-159.4,534.7h1427.6
			 M-159.4,492.4h1427.6 M-159.4,450.1h1427.6 M-159.4,407.8h1427.6 M-159.4,365.5h1427.6 M-159.4,323.2h1427.6 M-159.4,280.9
			h1427.6 M-159.4,238.6h1427.6 M-159.4,196.3h1427.6 M-159.4,154h1427.6 M-159.4,111.7h1427.6 M-159.4,69.4h1427.6 M-159.4,27.1
			h1427.6 M-159.4-15.2h1427.6 M-159.4-57.5h1427.6 M-159.4-99.8h1427.6 M-159.4-142.1l1427.6,0 M-159.4-184.4l1427.6,0"/>
		<path class="st3" d="M140.2,98.7h821.9c8,0,14.5,6.5,14.5,14.5v485.3c0,8-6.5,14.5-14.5,14.5H140.2c-8,0-14.5-6.5-14.5-14.5V113.2
			C125.7,105.2,132.2,98.7,140.2,98.7z"/>
		
			<linearGradient id="SVGID_00000043443041673622442400000016334791554135166381_" gradientUnits="userSpaceOnUse" x1="729.7437" y1="1188.3292" x2="574.1058" y2="166.8321" gradientTransform="matrix(1 0 0 -1 0 372)">
			<stop  offset="0" style="stop-color:#5753EC"/>
			<stop  offset="1" style="stop-color:#5753EC;stop-opacity:0"/>
		</linearGradient>
		<path style="fill:url(#SVGID_00000043443041673622442400000016334791554135166381_);fill-opacity:0.1;" d="M140.2,98.7h821.9
			c8,0,14.5,6.5,14.5,14.5v485.3c0,8-6.5,14.5-14.5,14.5H140.2c-8,0-14.5-6.5-14.5-14.5V113.2C125.7,105.2,132.2,98.7,140.2,98.7z"
			/>
		<path class="st5" d="M210.3,144.7L210.3,144.7c21.7,0,39.2,17.6,39.2,39.2v0c0,21.7-17.6,39.2-39.2,39.2h0
			c-21.7,0-39.2-17.6-39.2-39.2v0C171,162.3,188.6,144.7,210.3,144.7z"/>
		<g>
			<defs>
				<rect id="SVGID_00000103973471492271716860000012367010796148578728_" x="279.4" y="144.1" width="682.7" height="286.3"/>
			</defs>
			<clipPath id="SVGID_00000159444189013509725720000006954544814569578383_">
				<use xlink:href="#SVGID_00000103973471492271716860000012367010796148578728_"  style="overflow:visible;"/>
			</clipPath>
			<g style="clip-path:url(#SVGID_00000159444189013509725720000006954544814569578383_);">
				<g>
					<defs>
						<rect id="SVGID_00000013171273104489825880000013506494145564322997_" x="279.4" y="144.1" width="682.7" height="286.3"/>
					</defs>
					<clipPath id="SVGID_00000106835441185105705180000018295835468035337365_">
						<use xlink:href="#SVGID_00000013171273104489825880000013506494145564322997_"  style="overflow:visible;"/>
					</clipPath>
				</g>
			</g>
		</g>
		<g class="st7">
			<defs>
				<path id="SVGID_00000120545849255413092560000007182004066734967966_" d="M209.8,486.6L209.8,486.6c21.4,0,38.7,17.3,38.7,38.7
					l0,0c0,21.4-17.3,38.7-38.7,38.7l0,0c-21.4,0-38.7-17.3-38.7-38.7l0,0C171.1,503.9,188.4,486.6,209.8,486.6z"/>
			</defs>
			<clipPath id="SVGID_00000150801921242105016170000002645461291393856395_" class="st8">
				<use xlink:href="#SVGID_00000120545849255413092560000007182004066734967966_"  style="overflow:visible;"/>
			</clipPath>
			<g style="display:inline;clip-path:url(#SVGID_00000150801921242105016170000002645461291393856395_);">
				<path class="st10" d="M209.8,486.6L209.8,486.6c21.4,0,38.7,17.3,38.7,38.7l0,0c0,21.4-17.3,38.7-38.7,38.7l0,0
					c-21.4,0-38.7-17.3-38.7-38.7l0,0C171.1,503.9,188.4,486.6,209.8,486.6z"/>
			</g>
		</g>
		<g class="st7">
			<defs>
				<rect id="SVGID_00000136395231846611504840000000492966407185044915_" x="279.4" y="486.6" width="682.7" height="81"/>
			</defs>
			<clipPath id="SVGID_00000141424633059257945070000016167826036894889386_" class="st8">
				<use xlink:href="#SVGID_00000136395231846611504840000000492966407185044915_"  style="overflow:visible;"/>
			</clipPath>
			<g style="display:inline;clip-path:url(#SVGID_00000141424633059257945070000016167826036894889386_);">
				<g>
					<defs>
						<rect id="SVGID_00000147938043217086388110000008355996052198656644_" x="279.4" y="486.6" width="682.7" height="81"/>
					</defs>
					<clipPath id="SVGID_00000147217639405194456680000007969273224914697147_">
						<use xlink:href="#SVGID_00000147938043217086388110000008355996052198656644_"  style="overflow:visible;"/>
					</clipPath>
					<g style="clip-path:url(#SVGID_00000147217639405194456680000007969273224914697147_);">
						<g>
							<defs>
								<rect id="SVGID_00000102515603846083726990000004853891815441309572_" x="279.4" y="486.6" width="246.7" height="22.7"/>
							</defs>
							<clipPath id="SVGID_00000162333181285555986580000008164075169699247767_">
								<use xlink:href="#SVGID_00000102515603846083726990000004853891815441309572_"  style="overflow:visible;"/>
							</clipPath>
							<g style="clip-path:url(#SVGID_00000162333181285555986580000008164075169699247767_);">
								<path class="st14" d="M293.5,494.1c0-4.3-2.9-6.6-7.8-6.6h-6.3v21.4h4.1V501h1.8C290.2,501,293.5,498.7,293.5,494.1z
									 M289.5,494.2c0,2.4-1.5,3.5-4.2,3.5h-1.8v-6.9h2C288.1,490.8,289.5,492,289.5,494.2z"/>
								<path class="st14" d="M307.3,508.9v-10.2c0-3.6-1.9-5-5.8-5c-2.4,0-4.2,0.5-5.9,1.2l0.5,3c1.6-0.7,3.2-1.2,5-1.2
									c1.6,0,2.6,0.6,2.6,2.2v0.4c-6,0.6-9,2.2-9,5.8c0,2.6,1.7,4.1,4.2,4.1c2.2,0,3.8-1,5-2.3l0.3,2H307.3z M303.5,504.8
									c-1,1-2.2,1.6-3.5,1.6c-1.1,0-1.8-0.6-1.8-1.7c0-1.4,1-2.7,5.3-3.2V504.8z"/>
								<path class="st14" d="M324.5,501c0-5-2.5-7.4-5.6-7.4c-1.9,0-3.3,1-4.2,2v-9.1l-3.7,0.6v20.9c1.9,0.6,3.8,1,6.1,1
									C321.5,509.1,324.5,506.5,324.5,501z M320.8,501.2c0,3.4-1.4,4.8-3.8,4.8c-1.1,0-1.6-0.1-2.4-0.4v-6.8c0.9-1.1,2-2,3.3-2
									C319.6,496.9,320.8,498.4,320.8,501.2z"/>
								<path class="st14" d="M331.4,508.9v-22.3l-3.7,0.6v21.8H331.4z"/>
								<path class="st14" d="M348.7,501.4c0-4.9-3-7.8-7.1-7.8c-4.1,0-7,2.9-7,7.8c0,4.9,2.9,7.8,7,7.8
									C345.7,509.2,348.7,506.3,348.7,501.4z M345,501.4c0,2.8-1.2,4.7-3.5,4.7c-2.2,0-3.4-2-3.4-4.7c0-2.8,1.2-4.7,3.4-4.7
									C343.8,496.7,345,498.7,345,501.4z"/>
								<path class="st15" d="M368.9,490.1l-0.3-2h-12.2v2h5.1v14h2.2v-14H368.9z"/>
								<path class="st15" d="M377.8,498.6c0-3.6-2.2-5.8-5.2-5.8c-2.9,0-5.1,2.1-5.1,5.8c0,3.6,2.1,5.8,5.1,5.8
									C375.6,504.4,377.8,502.3,377.8,498.6z M375.7,498.6c0,2.3-1,4-3.1,4c-2,0-3-1.8-3-4c0-2.3,1-4,3-4
									C374.7,494.6,375.7,496.4,375.7,498.6z"/>
								<path class="st15" d="M389.7,504.2v-16.8l-2.1,0.3v5.7c-0.7-0.3-1.7-0.5-2.8-0.5c-2.7,0-5,2-5,6c0,3.7,2,5.5,4.4,5.5
									c1.6,0,2.8-0.8,3.6-1.8l0.3,1.6H389.7z M387.6,500.6c-0.9,1.2-1.9,1.9-3.1,1.9c-1.5,0-2.6-1.3-2.6-3.7c0-2.7,1.3-4.2,3-4.2
									c1.2,0,1.9,0.2,2.7,0.6V500.6z"/>
								<path class="st15" d="M401.3,504.2v-7.8c0-2.5-1.3-3.6-4-3.6c-1.7,0-3,0.4-4.3,0.9l0.3,1.8c1.2-0.5,2.5-1,3.8-1
									c1.3,0,2.1,0.5,2.1,1.9v0.5c-4.6,0.5-7,1.6-7,4.3c0,1.9,1.3,3.1,3.2,3.1c1.8,0,3-0.8,3.9-1.7l0.2,1.5H401.3z M399.3,501.1
									c-0.9,1-2.1,1.6-3.3,1.6c-1,0-1.6-0.6-1.6-1.5c0-1.1,0.9-2.3,4.9-2.6V501.1z"/>
								<path class="st15" d="M413.4,493.1h-2.1l-2.9,8.7l-3-8.8l-2,0.3l4,11l-0.4,1.1c-0.3,0.9-0.9,1.3-1.8,1.3
									c-0.4,0-0.8-0.1-1.2-0.2l0.3,1.8c0.2,0,0.4,0.1,0.7,0.1c1.8,0,3-0.7,4-3.2L413.4,493.1z"/>
								<path class="st15" d="M429,504.2v-7.8c0-2.5-1.3-3.6-4-3.6c-1.7,0-3,0.4-4.3,0.9l0.3,1.8c1.2-0.5,2.5-1,3.8-1
									c1.3,0,2.1,0.5,2.1,1.9v0.5c-4.6,0.5-7,1.6-7,4.3c0,1.9,1.3,3.1,3.2,3.1c1.8,0,3-0.8,3.9-1.7l0.2,1.5H429z M427,501.1
									c-0.9,1-2.1,1.6-3.3,1.6c-1,0-1.6-0.6-1.6-1.5c0-1.1,0.9-2.3,4.9-2.6V501.1z"/>
								<path class="st15" d="M437.5,504.2l-0.3-1.8c-0.3,0-0.6,0.1-1,0.1c-1.2,0-1.5-0.6-1.5-1.5v-6.2h2.7l-0.3-1.7h-2.4v-4l-2,0.3
									v3.7h-1.7v1.7h1.7v6.6c0,2.2,1.3,2.9,3.2,2.9C436.7,504.3,437.2,504.3,437.5,504.2z"/>
								<path class="st15" d="M456.6,500.6v-1.7h-2.5v-10.5h-2.5l-7.3,10.7v1.5h7.8v3.6h1.9v-3.6H456.6z M452.2,498.9h-5.6l5.6-8.1
									V498.9z"/>
								<path class="st15" d="M461.1,495.8v-2.8h-2.3v2.8H461.1z M461.1,504.2v-2.8h-2.3v2.8H461.1z"/>
								<path class="st15" d="M473.9,504.2l-0.3-1.9h-7.2l4.5-4.5c1.9-2,2.8-3.3,2.8-5.2c0-2.7-1.9-4.4-4.9-4.4
									c-2,0-3.5,0.8-4.7,1.8l0.3,2c1.2-1.1,2.6-1.9,4.3-1.9c1.8,0,2.9,0.9,2.9,2.6c0,1.3-0.6,2.3-2,3.8l-5.8,6.1v1.6H473.9z"/>
								<path class="st15" d="M488.2,496.3c0-5.2-2.4-8.1-6-8.1c-3.6,0-6,2.9-6,8.1c0,5.2,2.4,8.1,6,8.1
									C485.8,504.5,488.2,501.5,488.2,496.3z M486.1,496.3c0,4.1-1.4,6.3-3.9,6.3c-2.4,0-3.9-2.2-3.9-6.3c0-4.1,1.5-6.3,3.9-6.3
									C484.7,490,486.1,492.2,486.1,496.3z"/>
								<path class="st15" d="M506.1,492.8c0-3-2-4.6-5.4-4.6h-4.2v16h2.2v-6.5h1.7C503.8,497.7,506.1,496,506.1,492.8z
									 M503.9,492.8c0,2-1.3,2.9-3.5,2.9h-1.8v-5.7h1.9C502.8,490.1,503.9,491,503.9,492.8z"/>
								<path class="st15" d="M526.1,504.2l-1.3-16h-2.7l-5,13.1l-5-13.1h-2.7l-1.3,16h2l1-12.7l5.1,12.8h1.6l5.1-12.8l1,12.7H526.1
									z"/>
							</g>
						</g>
						<path class="st16" d="M308.6,538.6h-3l-4.7,16.8l-5.4-16.8h-2.9l-5.4,16.8l-4.8-17l-2.8,0.6l6.3,20.9h2.4l5.8-17.3l5.8,17.3
							h2.4L308.6,538.6z"/>
						<path class="st16" d="M321.8,552.3c0-4.1-2-7.4-6.3-7.4c-3.7,0-6.5,2.9-6.5,7.6c0,5.4,3,7.7,6.8,7.7c2.4,0,4.3-0.7,5.9-2
							l-0.4-2.5c-1.6,1.3-3.2,2.1-5.3,2.1c-2.6,0-4.2-1.6-4.3-5h10C321.8,552.7,321.8,552.4,321.8,552.3z M319,550.8h-7.1
							c0.4-2.5,1.9-3.7,3.6-3.7C317.6,547,318.7,548.4,319,550.8z"/>
						<path class="st16" d="M328.3,559.9v-22.3l-2.8,0.4v21.9H328.3z"/>
						<path class="st16" d="M343.9,558.7l-0.4-2.5c-1.5,1.3-2.8,1.6-4.3,1.6c-2.6,0-4.4-1.7-4.4-5.3c0-3.4,1.7-5.3,4.1-5.3
							c1.7,0,3.1,0.5,4.5,1.6l0.4-2.7c-1.1-0.8-2.7-1.4-4.8-1.4c-3.8,0-6.9,2.7-6.9,7.7c0,4.9,2.9,7.7,6.9,7.7
							C340.9,560.2,342.4,559.8,343.9,558.7z"/>
						<path class="st16" d="M359.9,552.6c0-4.9-2.9-7.7-6.9-7.7c-3.9,0-6.8,2.8-6.8,7.7s2.8,7.7,6.8,7.7
							C357,560.2,359.9,557.4,359.9,552.6z M357.1,552.6c0,3.1-1.4,5.4-4.1,5.4c-2.6,0-4-2.4-4-5.4c0-3.1,1.3-5.4,4-5.4
							C355.7,547.2,357.1,549.5,357.1,552.6z"/>
						<path class="st16" d="M384.3,559.9v-10.7c0-2.7-1.4-4.3-4.2-4.3c-2.1,0-3.9,1.2-5.2,2.4c-0.6-1.5-1.7-2.4-3.9-2.4
							c-2.1,0-3.7,1.2-5.1,2.4l-0.3-2.1h-2.2v14.8h2.8v-10.2c1.3-1.4,2.7-2.4,4.2-2.4c1.6,0,2.2,1,2.2,2.5v10.1h2.8v-10.2
							c1.3-1.4,2.7-2.4,4.2-2.4c1.6,0,2.2,1,2.2,2.5v10.1H384.3z"/>
						<path class="st16" d="M400.6,552.3c0-4.1-2-7.4-6.3-7.4c-3.7,0-6.5,2.9-6.5,7.6c0,5.4,3,7.7,6.8,7.7c2.4,0,4.3-0.7,5.9-2
							l-0.4-2.5c-1.6,1.3-3.2,2.1-5.3,2.1c-2.6,0-4.2-1.6-4.3-5h10C400.6,552.7,400.6,552.4,400.6,552.3z M397.8,550.8h-7.1
							c0.4-2.5,1.9-3.7,3.6-3.7C396.4,547,397.4,548.4,397.8,550.8z"/>
						<path class="st16" d="M418,560l-0.4-2.4c-0.3,0.1-0.8,0.1-1.3,0.1c-1.5,0-2-0.7-2-1.9v-8.3h3.6l-0.4-2.3h-3.2v-5.3l-2.7,0.4
							v4.9h-2.2v2.3h2.2v8.8c0,3,1.7,3.9,4.3,3.9C416.8,560.2,417.5,560.1,418,560z"/>
						<path class="st16" d="M434,552.6c0-4.9-2.9-7.7-6.9-7.7c-3.9,0-6.8,2.8-6.8,7.7s2.8,7.7,6.8,7.7
							C431.1,560.2,434,557.4,434,552.6z M431.2,552.6c0,3.1-1.4,5.4-4.1,5.4c-2.6,0-4-2.4-4-5.4c0-3.1,1.3-5.4,4-5.4
							C429.8,547.2,431.2,549.5,431.2,552.6z"/>
						<path class="st16" d="M451.4,560l-0.4-2.4c-0.3,0.1-0.8,0.1-1.3,0.1c-1.5,0-2-0.7-2-1.9v-8.3h3.6l-0.4-2.3h-3.2v-5.3l-2.7,0.4
							v4.9h-2.2v2.3h2.2v8.8c0,3,1.7,3.9,4.3,3.9C450.3,560.2,450.9,560.1,451.4,560z"/>
						<path class="st16" d="M466.8,559.9v-10.7c0-2.7-1.5-4.3-4.3-4.3c-2.1,0-3.8,1.2-5,2.3v-9.5l-2.8,0.4v21.9h2.8v-10.2
							c1.3-1.4,2.8-2.4,4.3-2.4c1.6,0,2.3,1,2.3,2.5v10.1H466.8z"/>
						<path class="st16" d="M483,552.3c0-4.1-2-7.4-6.3-7.4c-3.7,0-6.5,2.9-6.5,7.6c0,5.4,3,7.7,6.8,7.7c2.4,0,4.3-0.7,5.9-2
							l-0.4-2.5c-1.6,1.3-3.2,2.1-5.3,2.1c-2.6,0-4.2-1.6-4.3-5h10C483,552.7,483,552.4,483,552.3z M480.2,550.8h-7.1
							c0.4-2.5,1.9-3.7,3.6-3.7C478.8,547,479.9,548.4,480.2,550.8z"/>
						<path class="st16" d="M503.6,555.8c0-2.8-1.6-3.9-5.3-4.8c-2.3-0.6-3.1-1.1-3.1-2.1c0-1.1,0.9-1.7,2.5-1.7
							c1.5,0,3.2,0.5,4.5,1.3l0.4-2.6c-1.4-0.6-3-1-4.9-1c-3.2,0-5.2,1.7-5.2,4.1c0,2.6,1.4,3.7,4.9,4.5c2.7,0.7,3.5,1.1,3.5,2.5
							c0,1.2-1.1,1.9-3,1.9c-2,0-3.8-0.7-5.2-1.7l-0.4,2.6c1.3,0.7,3.4,1.4,5.4,1.4C501.6,560.2,503.6,558.5,503.6,555.8z"/>
						<path class="st16" d="M518.9,552.3c0-4.1-2-7.4-6.3-7.4c-3.7,0-6.5,2.9-6.5,7.6c0,5.4,3,7.7,6.8,7.7c2.4,0,4.3-0.7,5.9-2
							l-0.4-2.5c-1.6,1.3-3.2,2.1-5.3,2.1c-2.6,0-4.2-1.6-4.3-5h10C518.9,552.7,518.9,552.4,518.9,552.3z M516.1,550.8H509
							c0.4-2.5,1.9-3.7,3.6-3.7C514.7,547,515.8,548.4,516.1,550.8z"/>
						<path class="st16" d="M530.7,547.5l-0.4-2.6c-2.4,0.1-4.1,1.6-5.2,3.3l-0.5-3h-2.2v14.8h2.8v-8.7
							C526.1,549.3,528.2,547.6,530.7,547.5z"/>
						<path class="st16" d="M545.2,545.2h-2.8l-3.7,11.4l-3.8-11.7l-2.8,0.4l5.2,14.6h2.6L545.2,545.2z"/>
						<path class="st16" d="M559.6,552.3c0-4.1-2-7.4-6.3-7.4c-3.7,0-6.5,2.9-6.5,7.6c0,5.4,3,7.7,6.8,7.7c2.4,0,4.3-0.7,5.9-2
							l-0.4-2.5c-1.6,1.3-3.2,2.1-5.3,2.1c-2.6,0-4.2-1.6-4.3-5h10C559.6,552.7,559.6,552.4,559.6,552.3z M556.8,550.8h-7.1
							c0.4-2.5,1.9-3.7,3.6-3.7C555.4,547,556.5,548.4,556.8,550.8z"/>
						<path class="st16" d="M571.3,547.5l-0.4-2.6c-2.4,0.1-4.1,1.6-5.2,3.3l-0.5-3h-2.2v14.8h2.8v-8.7
							C566.8,549.3,568.9,547.6,571.3,547.5z"/>
						<path class="st16" d="M575.3,556.2h-3.2l-1.5,7.4l1.5,0.4L575.3,556.2z"/>
						<rect x="581.1" y="534" class="st17" width="134" height="33.6"/>
						<path class="st18" d="M598.2,553.3c-1.4,1.7-2.4,2.5-3.4,2.5c-1,0-1.5-0.7-1.5-2.2c0-3.7,2-5.9,4-5.9c0.8,0,1.1,0.1,1.8,0.3
							L598.2,553.3z M598.4,555.3c0.4,1.7,2,2.5,3.8,2.5c3.4,0,5.5-3.1,5.5-7.9c0-6.1-4-10-10-10c-7.1,0-12.7,6.2-12.7,13.7
							c0,6.4,4,10,10.1,10c2.9,0,5.2-0.7,7-1.5l-0.2-1.1c-1.9,0.9-4.1,1.5-6.7,1.5c-5.1,0-8.9-2.8-8.9-9c0-7.3,5.1-12.6,11.2-12.6
							c5,0,8.8,3,8.8,8.9c0,4.1-1.7,6.4-3.8,6.4c-1.3,0-2-0.7-2-2c0-0.5,0.1-1.2,0.1-1.6l1-6.3c-1.3-0.5-2.7-0.8-4.1-0.8
							c-3.4,0-6.6,3.2-6.6,8.2c0,2.8,1.6,3.9,3.2,3.9C595.7,557.8,596.8,557,598.4,555.3z"/>
						<path class="st18" d="M629.4,548.6c0-6.3-3.8-10.6-11.2-10.6h-6.2v21.4h6.1C625.3,559.3,629.4,555,629.4,548.6z M626.3,548.6
							c0,5.4-3.1,8-8.2,8h-3.3v-16.1h3.4C623.1,540.6,626.3,543.3,626.3,548.6z"/>
						<path class="st18" d="M641.5,546.9l-0.4-2.6c-2.4,0.1-4.1,1.6-5.2,3.3l-0.5-3h-2.2v14.8h2.8v-8.7
							C637,548.6,639.1,547,641.5,546.9z"/>
						<path class="st18" d="M655,559.3V549c0-3.3-1.7-4.7-5.3-4.7c-2.3,0-4,0.5-5.7,1.2l0.4,2.4c1.6-0.7,3.3-1.3,5.1-1.3
							c1.7,0,2.8,0.7,2.8,2.5v0.6c-6.2,0.7-9.3,2.1-9.3,5.8c0,2.5,1.7,4.1,4.3,4.1c2.4,0,4-1.1,5.2-2.3l0.3,2H655z M652.2,555.3
							c-1.2,1.3-2.8,2.1-4.4,2.1c-1.4,0-2.2-0.8-2.2-2c0-1.5,1.1-3,6.6-3.5V555.3z"/>
						<path class="st18" d="M680.2,559.3v-10.7c0-2.7-1.4-4.3-4.2-4.3c-2.1,0-3.9,1.2-5.2,2.4c-0.6-1.5-1.7-2.4-3.9-2.4
							c-2.1,0-3.7,1.2-5.1,2.4l-0.3-2.1h-2.2v14.8h2.8v-10.2c1.3-1.4,2.7-2.4,4.2-2.4c1.6,0,2.2,1,2.2,2.5v10.1h2.8v-10.2
							c1.3-1.4,2.7-2.4,4.2-2.4c1.6,0,2.2,1,2.2,2.5v10.1H680.2z"/>
						<path class="st18" d="M696.4,551.7c0-4.1-2-7.4-6.3-7.4c-3.7,0-6.5,2.9-6.5,7.6c0,5.4,3,7.7,6.8,7.7c2.4,0,4.3-0.7,5.9-2
							l-0.4-2.5c-1.6,1.3-3.2,2.1-5.3,2.1c-2.6,0-4.2-1.6-4.3-5h10C696.4,552.1,696.4,551.8,696.4,551.7z M693.7,550.2h-7.1
							c0.4-2.5,1.9-3.7,3.6-3.7C692.3,546.4,693.3,547.8,693.7,550.2z"/>
						<path class="st18" d="M711.2,559.1l-5-7.5l4.7-7.1H708l-3.2,5l-3.4-5.3l-2.7,0.4l4.7,7l-5,7.5h2.9l3.5-5.5l3.7,5.7
							L711.2,559.1z"/>
						<path class="st16" d="M724.3,540.1H721l0.7,15l1.8-0.4L724.3,540.1z M724.1,561.5v-3.7H721v3.7H724.1z"/>
					</g>
				</g>
			</g>
		</g>
		
			<linearGradient id="SVGID_00000150785635729603854840000002737792344088291981_" gradientUnits="userSpaceOnUse" x1="551.1447" y1="273.7893" x2="551.1447" y2="-241.5251" gradientTransform="matrix(1 0 0 -1 0 372)">
			<stop  offset="0" style="stop-color:#303341"/>
			<stop  offset="1" style="stop-color:#282A37;stop-opacity:0.47"/>
		</linearGradient>
		<path style="fill:none;stroke:url(#SVGID_00000150785635729603854840000002737792344088291981_);" d="M140.2,98.7h821.9
			c8,0,14.5,6.5,14.5,14.5v485.3c0,8-6.5,14.5-14.5,14.5H140.2c-8,0-14.5-6.5-14.5-14.5V113.2C125.7,105.2,132.2,98.7,140.2,98.7z"
			/>
		
			<linearGradient id="SVGID_00000178202271988870786390000016034111106363124664_" gradientUnits="userSpaceOnUse" x1="1081.0602" y1="863.5086" x2="654.0206" y2="180.6388" gradientTransform="matrix(1 0 0 -1 0 372)">
			<stop  offset="0" style="stop-color:#5754EC"/>
			<stop  offset="1" style="stop-color:#5754EC;stop-opacity:0"/>
		</linearGradient>
		<path style="fill:none;stroke:url(#SVGID_00000178202271988870786390000016034111106363124664_);stroke-opacity:0.3;" d="
			M140.2,98.7h821.9c8,0,14.5,6.5,14.5,14.5v485.3c0,8-6.5,14.5-14.5,14.5H140.2c-8,0-14.5-6.5-14.5-14.5V113.2
			C125.7,105.2,132.2,98.7,140.2,98.7z"/>
		<path class="st21" d="M1041.5,30.6l7.1,27.8l24.2,12l-25.8,8l-11.4,26.3l-7.1-27.8l-24.2-12l25.8-8L1041.5,30.6z"/>
		<g>
			<path class="st21" d="M1041.5,30.6l7.1,27.8l24.2,12l-25.8,8l-11.4,26.3l-7.1-27.8l-24.2-12l25.8-8L1041.5,30.6z"/>
		</g>
		
			<linearGradient id="SVGID_00000025413590541697524290000001923614362280347528_" gradientUnits="userSpaceOnUse" x1="556.0684" y1="-14.9293" x2="556.0684" y2="-355.7567" gradientTransform="matrix(1 0 0 -1 0 372)">
			<stop  offset="0" style="stop-color:#13141B;stop-opacity:0"/>
			<stop  offset="1" style="stop-color:#13141B"/>
		</linearGradient>
		
			<rect x="3.5" y="386.9" style="fill:url(#SVGID_00000025413590541697524290000001923614362280347528_);" width="1105.2" height="340.8"/>
	</g>
</g>
<linearGradient id="SVGID_00000060742947109444790550000014927906933538750872_" gradientUnits="userSpaceOnUse" x1="555.0833" y1="371.015" x2="555.0833" y2="-354.9821" gradientTransform="matrix(1 0 0 -1 0 372)">
	<stop  offset="0" style="stop-color:#262837"/>
	<stop  offset="1" style="stop-color:#000000;stop-opacity:0"/>
</linearGradient>
<path style="fill:none;stroke:url(#SVGID_00000060742947109444790550000014927906933538750872_);" d="M24.1,1.5H1086
	c12.5,0,22.7,10.1,22.7,22.7v679.7c0,12.5-10.1,22.7-22.7,22.7H24.1c-12.5,0-22.7-10.1-22.7-22.7V24.1C1.5,11.6,11.6,1.5,24.1,1.5z"
	/>
</svg>
